# xmcd
#
# Track frame offsets: 
#        150
#        13225
#        22757
#        32490
#        43245
#        53752
#        66167
#        77370
#        88442
#        99617
#        112592
#        125270
#        136970
#        147490
#        162655
#        173692
#        185335
#        196902
#        210260
#        222467
#        231587
#        242647
#        252955
#        264590
#        279867
#        292110
#        307717
#        319350
#        329675
#
# Disc length: 4525 seconds
#
# Revision: 3
# Processed by: cddbd v1.5.2PL0 Copyright (c) Steve Scherf et al.
# Submitted via: ExactAudioCopyFreeDBPlugin 1.0
#
DISCID=a511ab1d
DTITLE=Chet Atkins - Galloping Guitar - The Early Years - Disc 4
DYEAR=1995
DGENRE=Country
TTITLE0=Get Up And Go (Vocal) '93
TTITLE1=Pagan Love Song '54
TTITLE2=Beautiful Ohio (Version 2) '54
TTITLE3=Downhill Drag '54
TTITLE4=Avalon '54
TTITLE5=Sunrize Serenade '54
TTITLE6=San Antonio Rose '54
TTITLE7=Set A Spell (& Red Kirk) '54
TTITLE8=Mister Misery (Duet Vocal) '54
TTITLE9=Get Up And Go (& Red Kirk) '93
TTITLE10=South '55
TTITLE11=Alabama Jubilee '55
TTITLE12=Corrine, Corrina '55
TTITLE13=Back Home In Indiana '55
TTITLE14=Red Wing '55
TTITLE15=Frankie And Johnnie '55
TTITLE16=A Gay Ranchero '55
TTITLE17=Ballin' The Jack '93
TTITLE18=Honeysuckle Rose '55
TTITLE19=Darktown Strutters Ball (& Hank Snow) '90
TTITLE20=The Old Spinning Wheel (& Hank Snow) '55
TTITLE21=Silver Bells (& Hank Snow) '55
TTITLE22=Under The Double Eagle (& Hank Snow) '90
TTITLE23=The Birth Of The Blues '55
TTITLE24=Have You Ever Been Lonely '55
TTITLE25=Caravan '55
TTITLE26=Old Man River '55
TTITLE27=Mister Sandman '54
TTITLE28=New Spanish Two Step '93
EXTD=
EXTT0=
EXTT1=
EXTT2=
EXTT3=
EXTT4=
EXTT5=
EXTT6=
EXTT7=
EXTT8=
EXTT9=
EXTT10=
EXTT11=
EXTT12=
EXTT13=
EXTT14=
EXTT15=
EXTT16=
EXTT17=
EXTT18=
EXTT19=
EXTT20=
EXTT21=
EXTT22=
EXTT23=
EXTT24=
EXTT25=
EXTT26=
EXTT27=
EXTT28=
PLAYORDER=
